<?xml version="1.0" encoding="UTF-8" standalone="no"?>
<!DOCTYPE svg PUBLIC "-//W3C//DTD SVG 1.1//EN"
 "http://www.w3.org/Graphics/SVG/1.1/DTD/svg11.dtd">
<!-- Generated by graphviz version 2.38.0 (20140413.2041)
 -->
<!-- Title: trading_platform Pages: 1 -->
<svg width="597pt" height="188pt"
 viewBox="0.00 0.00 596.74 188.00" xmlns="http://www.w3.org/2000/svg" xmlns:xlink="http://www.w3.org/1999/xlink">
<g id="graph0" class="graph" transform="scale(1 1) rotate(0) translate(4 184)">
<title>trading_platform</title>
<polygon fill="white" stroke="none" points="-4,4 -4,-184 592.738,-184 592.738,4 -4,4"/>
<!-- Market data provider 1 -->
<g id="node1" class="node"><title>Market data provider 1</title>
<ellipse fill="none" stroke="black" cx="91.3864" cy="-162" rx="91.2729" ry="18"/>
<text text-anchor="middle" x="91.3864" y="-157.8" font-family="Times,serif" font-size="14.00">Market data provider 1</text>
</g>
<!-- Trading platform -->
<g id="node2" class="node"><title>Trading platform</title>
<ellipse fill="none" stroke="black" cx="292.386" cy="-90" rx="70.4132" ry="18"/>
<text text-anchor="middle" x="292.386" y="-85.8" font-family="Times,serif" font-size="14.00">Trading platform</text>
</g>
<!-- Market data provider 1&#45;&gt;Trading platform -->
<g id="edge1" class="edge"><title>Market data provider 1&#45;&gt;Trading platform</title>
<path fill="none" stroke="black" d="M134.506,-145.983C166.318,-134.905 209.664,-119.809 242.89,-108.237"/>
<polygon fill="black" stroke="black" points="244.121,-111.515 252.413,-104.921 241.819,-104.905 244.121,-111.515"/>
</g>
<!-- Stock exchange 1 -->
<g id="node5" class="node"><title>Stock exchange 1</title>
<ellipse fill="none" stroke="black" cx="129.386" cy="-18" rx="72.4635" ry="18"/>
<text text-anchor="middle" x="129.386" y="-13.8" font-family="Times,serif" font-size="14.00">Stock exchange 1</text>
</g>
<!-- Trading platform&#45;&gt;Stock exchange 1 -->
<g id="edge4" class="edge"><title>Trading platform&#45;&gt;Stock exchange 1</title>
<path fill="none" stroke="black" d="M257.818,-74.1548C233.265,-63.6106 200.092,-49.3643 173.61,-37.9919"/>
<polygon fill="black" stroke="black" points="174.755,-34.6744 164.185,-33.9443 171.993,-41.1063 174.755,-34.6744"/>
</g>
<!-- Stock exchange 2 -->
<g id="node6" class="node"><title>Stock exchange 2</title>
<ellipse fill="none" stroke="black" cx="292.386" cy="-18" rx="72.4635" ry="18"/>
<text text-anchor="middle" x="292.386" y="-13.8" font-family="Times,serif" font-size="14.00">Stock exchange 2</text>
</g>
<!-- Trading platform&#45;&gt;Stock exchange 2 -->
<g id="edge5" class="edge"><title>Trading platform&#45;&gt;Stock exchange 2</title>
<path fill="none" stroke="black" d="M292.386,-71.6966C292.386,-63.9827 292.386,-54.7125 292.386,-46.1124"/>
<polygon fill="black" stroke="black" points="295.886,-46.1043 292.386,-36.1043 288.886,-46.1044 295.886,-46.1043"/>
</g>
<!-- Stock exchange N -->
<g id="node7" class="node"><title>Stock exchange N</title>
<ellipse fill="none" stroke="black" cx="457.386" cy="-18" rx="74.393" ry="18"/>
<text text-anchor="middle" x="457.386" y="-13.8" font-family="Times,serif" font-size="14.00">Stock exchange N</text>
</g>
<!-- Trading platform&#45;&gt;Stock exchange N -->
<g id="edge6" class="edge"><title>Trading platform&#45;&gt;Stock exchange N</title>
<path fill="none" stroke="black" d="M327.379,-74.1548C352.233,-63.6106 385.813,-49.3643 412.62,-37.9919"/>
<polygon fill="black" stroke="black" points="414.322,-41.0719 422.161,-33.9443 411.588,-34.6278 414.322,-41.0719"/>
</g>
<!-- Market data provider 2 -->
<g id="node3" class="node"><title>Market data provider 2</title>
<ellipse fill="none" stroke="black" cx="292.386" cy="-162" rx="91.2729" ry="18"/>
<text text-anchor="middle" x="292.386" y="-157.8" font-family="Times,serif" font-size="14.00">Market data provider 2</text>
</g>
<!-- Market data provider 2&#45;&gt;Trading platform -->
<g id="edge2" class="edge"><title>Market data provider 2&#45;&gt;Trading platform</title>
<path fill="none" stroke="black" d="M292.386,-143.697C292.386,-135.983 292.386,-126.712 292.386,-118.112"/>
<polygon fill="black" stroke="black" points="295.886,-118.104 292.386,-108.104 288.886,-118.104 295.886,-118.104"/>
</g>
<!-- Market data provider N -->
<g id="node4" class="node"><title>Market data provider N</title>
<ellipse fill="none" stroke="black" cx="495.386" cy="-162" rx="93.2025" ry="18"/>
<text text-anchor="middle" x="495.386" y="-157.8" font-family="Times,serif" font-size="14.00">Market data provider N</text>
</g>
<!-- Market data provider N&#45;&gt;Trading platform -->
<g id="edge3" class="edge"><title>Market data provider N&#45;&gt;Trading platform</title>
<path fill="none" stroke="black" d="M451.838,-145.983C419.71,-134.905 375.932,-119.809 342.375,-108.237"/>
<polygon fill="black" stroke="black" points="343.352,-104.872 332.757,-104.921 341.07,-111.49 343.352,-104.872"/>
</g>
</g>
</svg>
