<?xml version="1.0" encoding="UTF-8" standalone="no"?>
<!DOCTYPE svg PUBLIC "-//W3C//DTD SVG 1.1//EN"
 "http://www.w3.org/Graphics/SVG/1.1/DTD/svg11.dtd">
<!-- Generated by graphviz version 2.38.0 (20140413.2041)
 -->
<!-- Title: trading_platform Pages: 1 -->
<svg width="202pt" height="404pt"
 viewBox="0.00 0.00 202.00 404.00" xmlns="http://www.w3.org/2000/svg" xmlns:xlink="http://www.w3.org/1999/xlink">
<g id="graph0" class="graph" transform="scale(1 1) rotate(0) translate(4 400)">
<title>trading_platform</title>
<polygon fill="white" stroke="none" points="-4,4 -4,-400 198,-400 198,4 -4,4"/>
<g id="clust1" class="cluster"><title>cluster_0</title>
<polygon fill="none" stroke="gray" points="8,-64 8,-332 186,-332 186,-64 8,-64"/>
</g>
<!-- Parsers -->
<g id="node1" class="node"><title>Parsers</title>
<ellipse fill="none" stroke="black" cx="93" cy="-306" rx="35.7974" ry="18"/>
<text text-anchor="middle" x="93" y="-301.8" font-family="Times,serif" font-size="14.00">Parsers</text>
</g>
<!-- Models -->
<g id="node2" class="node"><title>Models</title>
<ellipse fill="none" stroke="black" cx="93" cy="-234" rx="36.775" ry="18"/>
<text text-anchor="middle" x="93" y="-229.8" font-family="Times,serif" font-size="14.00">Models</text>
</g>
<!-- Parsers&#45;&gt;Models -->
<g id="edge1" class="edge"><title>Parsers&#45;&gt;Models</title>
<path fill="none" stroke="black" d="M93,-287.697C93,-279.983 93,-270.712 93,-262.112"/>
<polygon fill="black" stroke="black" points="96.5001,-262.104 93,-252.104 89.5001,-262.104 96.5001,-262.104"/>
</g>
<!-- UI -->
<g id="node3" class="node"><title>UI</title>
<ellipse fill="none" stroke="black" cx="43" cy="-162" rx="27" ry="18"/>
<text text-anchor="middle" x="43" y="-157.8" font-family="Times,serif" font-size="14.00">UI</text>
</g>
<!-- Models&#45;&gt;UI -->
<g id="edge2" class="edge"><title>Models&#45;&gt;UI</title>
<path fill="none" stroke="black" d="M81.4033,-216.765C75.0665,-207.893 67.0986,-196.738 60.0654,-186.892"/>
<polygon fill="black" stroke="black" points="62.8503,-184.769 54.1898,-178.666 57.1542,-188.837 62.8503,-184.769"/>
</g>
<!-- Strategies -->
<g id="node4" class="node"><title>Strategies</title>
<ellipse fill="none" stroke="black" cx="133" cy="-162" rx="44.9596" ry="18"/>
<text text-anchor="middle" x="133" y="-157.8" font-family="Times,serif" font-size="14.00">Strategies</text>
</g>
<!-- Models&#45;&gt;Strategies -->
<g id="edge3" class="edge"><title>Models&#45;&gt;Strategies</title>
<path fill="none" stroke="black" d="M102.479,-216.411C107.192,-208.163 112.995,-198.009 118.271,-188.777"/>
<polygon fill="black" stroke="black" points="121.388,-190.375 123.311,-179.956 115.31,-186.902 121.388,-190.375"/>
</g>
<!-- Executor -->
<g id="node5" class="node"><title>Executor</title>
<ellipse fill="none" stroke="black" cx="95" cy="-90" rx="42.0524" ry="18"/>
<text text-anchor="middle" x="95" y="-85.8" font-family="Times,serif" font-size="14.00">Executor</text>
</g>
<!-- UI&#45;&gt;Executor -->
<g id="edge4" class="edge"><title>UI&#45;&gt;Executor</title>
<path fill="none" stroke="black" d="M54.5405,-145.465C61.0203,-136.742 69.257,-125.654 76.6051,-115.762"/>
<polygon fill="black" stroke="black" points="79.6136,-117.582 82.7672,-107.467 73.9943,-113.407 79.6136,-117.582"/>
</g>
<!-- Strategies&#45;&gt;Executor -->
<g id="edge5" class="edge"><title>Strategies&#45;&gt;Executor</title>
<path fill="none" stroke="black" d="M123.801,-144.055C119.367,-135.887 113.952,-125.912 109.019,-116.824"/>
<polygon fill="black" stroke="black" points="111.961,-114.908 104.114,-107.789 105.809,-118.247 111.961,-114.908"/>
</g>
<!-- Stock exchange -->
<g id="node7" class="node"><title>Stock exchange</title>
<ellipse fill="none" stroke="black" cx="95" cy="-18" rx="65.6987" ry="18"/>
<text text-anchor="middle" x="95" y="-13.8" font-family="Times,serif" font-size="14.00">Stock exchange</text>
</g>
<!-- Executor&#45;&gt;Stock exchange -->
<g id="edge7" class="edge"><title>Executor&#45;&gt;Stock exchange</title>
<path fill="none" stroke="black" d="M95,-71.6966C95,-63.9827 95,-54.7125 95,-46.1124"/>
<polygon fill="black" stroke="black" points="98.5001,-46.1043 95,-36.1043 91.5001,-46.1044 98.5001,-46.1043"/>
</g>
<!-- Market data provider -->
<g id="node6" class="node"><title>Market data provider</title>
<ellipse fill="none" stroke="black" cx="93" cy="-378" rx="84.5083" ry="18"/>
<text text-anchor="middle" x="93" y="-373.8" font-family="Times,serif" font-size="14.00">Market data provider</text>
</g>
<!-- Market data provider&#45;&gt;Parsers -->
<g id="edge6" class="edge"><title>Market data provider&#45;&gt;Parsers</title>
<path fill="none" stroke="black" d="M93,-359.697C93,-351.983 93,-342.712 93,-334.112"/>
<polygon fill="black" stroke="black" points="96.5001,-334.104 93,-324.104 89.5001,-334.104 96.5001,-334.104"/>
</g>
</g>
</svg>
