<?xml version="1.0" encoding="UTF-8" standalone="no"?>
<!DOCTYPE svg PUBLIC "-//W3C//DTD SVG 1.1//EN"
 "http://www.w3.org/Graphics/SVG/1.1/DTD/svg11.dtd">
<!-- Generated by graphviz version 2.38.0 (20140413.2041)
 -->
<!-- Title: trading_platform Pages: 1 -->
<svg width="211pt" height="216pt"
 viewBox="0.00 0.00 211.34 216.00" xmlns="http://www.w3.org/2000/svg" xmlns:xlink="http://www.w3.org/1999/xlink">
<g id="graph0" class="graph" transform="scale(1 1) rotate(0) translate(4 212)">
<title>trading_platform</title>
<polygon fill="white" stroke="none" points="-4,4 -4,-212 207.344,-212 207.344,4 -4,4"/>
<!-- Market data provider -->
<g id="node1" class="node"><title>Market data provider</title>
<ellipse fill="none" stroke="black" cx="84.7538" cy="-190" rx="84.5083" ry="18"/>
<text text-anchor="middle" x="84.7538" y="-185.8" font-family="Times,serif" font-size="14.00">Market data provider</text>
</g>
<!-- Trading platform -->
<g id="node2" class="node"><title>Trading platform</title>
<ellipse fill="none" stroke="black" cx="84.7538" cy="-104" rx="70.4132" ry="18"/>
<text text-anchor="middle" x="84.7538" y="-99.8" font-family="Times,serif" font-size="14.00">Trading platform</text>
</g>
<!-- Market data provider&#45;&gt;Trading platform -->
<g id="edge1" class="edge"><title>Market data provider&#45;&gt;Trading platform</title>
<path fill="none" stroke="black" d="M84.7538,-171.595C84.7538,-160.257 84.7538,-145.227 84.7538,-132.315"/>
<polygon fill="black" stroke="black" points="88.2539,-132.095 84.7538,-122.095 81.2539,-132.095 88.2539,-132.095"/>
<text text-anchor="middle" x="133.754" y="-142.8" font-family="Times,serif" font-size="14.00"> Anonymous data</text>
</g>
<!-- Stock exchange -->
<g id="node3" class="node"><title>Stock exchange</title>
<ellipse fill="none" stroke="black" cx="84.7538" cy="-18" rx="65.6987" ry="18"/>
<text text-anchor="middle" x="84.7538" y="-13.8" font-family="Times,serif" font-size="14.00">Stock exchange</text>
</g>
<!-- Trading platform&#45;&gt;Stock exchange -->
<g id="edge2" class="edge"><title>Trading platform&#45;&gt;Stock exchange</title>
<path fill="none" stroke="black" d="M84.7538,-85.5951C84.7538,-74.2572 84.7538,-59.2271 84.7538,-46.3153"/>
<polygon fill="black" stroke="black" points="88.2539,-46.0951 84.7538,-36.0952 81.2539,-46.0952 88.2539,-46.0951"/>
<text text-anchor="middle" x="144.049" y="-56.8" font-family="Times,serif" font-size="14.00"> Orders to buy or sell</text>
</g>
</g>
</svg>
